<mxfile host="app.diagrams.net" modified="2024-04-21T06:10:08.810Z" agent="Mozilla/5.0 (Windows NT 10.0; Win64; x64) AppleWebKit/537.36 (KHTML, like Gecko) Chrome/123.0.0.0 Safari/537.36" etag="ix3Refdf-rumC06fFJtX" version="24.2.7" type="device">
  <diagram name="Страница — 1" id="kDy2P4g3t0cvJlOZyXp9">
    <mxGraphModel dx="2482" dy="918" grid="1" gridSize="10" guides="1" tooltips="1" connect="1" arrows="1" fold="1" page="1" pageScale="1" pageWidth="827" pageHeight="1169" math="0" shadow="0">
      <root>
        <mxCell id="0" />
        <mxCell id="1" parent="0" />
        <mxCell id="bKri6onNMNBy27MQ5fvs-16" value="Компьютер DESKTOP-T68LFNU&#xa;&#xa;&#xa;Сетевое имя                                  : DESKTOP-T68LFNU&#xa;Наименование                                 : Майкрософт Windows 10 Pro&#xa;Версия                                       : 10.0.19045&#xa;Серийный номер                               : 00331-10000-00001-AA950&#xa;Зарегестрированный пользователь              : Руслан&#xa;Код страны или региона                       : 7&#xa;&#xa;&#xa;UUID : 03000200-0400-0500-0006-000700080009&#xa;&#xa;&#xa;&#xa;Процессор&#xa;&#xa;Наименование                      : Intel(R) Core(TM) i7-4820K CPU @ 3.70GHz&#xa;Разъем                            : SOCKET 0&#xa;Описание                          : Intel64 Family 6 Model 62 Stepping 4&#xa;Текущая скорость процессора в МГц : 3701&#xa;&#xa;&#xa;&#xa;&#xa;Материнская плата&#xa;&#xa;Производитель  : OEM&#xa;Модель         : X79G&#xa;Статус         : OK&#xa;Серийный номер : To be filled by O.E.M.&#xa;&#xa;&#xa;&#xa;&#xa;Жесткие диски&#xa;&#xa;Модель              : WDC WD10EZEX-00RKKA0&#xa;Количество разделов : 2&#xa;Размер (гб)         : 932&#xa;Интерфейс           : IDE&#xa;&#xa;&#xa;Модель              : Samsung SSD 850 PRO 128GB&#xa;Количество разделов : 3&#xa;Размер (гб)         : 119&#xa;Интерфейс           : IDE&#xa;&#xa;&#xa;&#xa;&#xa;&#xa;&#xa;Логические диски&#xa;&#xa;Наименование         : C:&#xa;Файловая система     : NTFS&#xa;Размер (гб)          : 118&#xa;Свободное место (гб) : 39&#xa;&#xa;&#xa;Наименование         : D:&#xa;Файловая система     : NTFS&#xa;Размер (гб)          : 200&#xa;Свободное место (гб) : 200&#xa;&#xa;&#xa;Наименование         : E:&#xa;Файловая система     : NTFS&#xa;Размер (гб)          : 731&#xa;Свободное место (гб) : 564&#xa;&#xa;&#xa;&#xa;&#xa;&#xa;&#xa;Оперативная память&#xa;&#xa;&#xa;Размер (мб)                        : 4096&#xa;Расположение                       : Node0_Dimm1&#xa;Производитель                      : Kingston          &#xa;Номер детали (PartNumber)          : KHX2133C11D3/&#xa;Серийный номер                     : 0C3D3106    &#xa;Идентификатор                      : Physical Memory 1&#xa;Общая доступная Оперативная память : 16384&#xa;&#xa;&#xa;Размер (мб)                        : 4096&#xa;Расположение                       : Node0_Dimm3&#xa;Производитель                      : Kingston          &#xa;Номер детали (PartNumber)          : KHX2133C11D3/&#xa;Серийный номер                     : 0C3D2506    &#xa;Идентификатор                      : Physical Memory 3&#xa;Общая доступная Оперативная память : 16384&#xa;&#xa;Количество слотов оперативной памяти : 4&#xa;&#xa;&#xa;Видеокарта&#xa;&#xa;Наименование      : Radeon RX 570 Series&#xa;Объем памяти (мб) : 4095&#xa;Видеопроцессор    : AMD Radeon Graphics Processor (0x67DF)&#xa;&#xa;&#xa;&#xa;&#xa;&#xa;&#xa;Сетевая карта&#xa;&#xa;Наименование : Realtek PCIe GbE Family Controller&#xa;MAC адрес    : 00:E0:1B:41:56:64&#xa;Тип          : Ethernet 802.3&#xa;&#xa;&#xa;Наименование : VirtualBox Host-Only Ethernet Adapter&#xa;MAC адрес    : 0A:00:27:00:00:0C&#xa;Тип          : Ethernet 802.3" style="text;whiteSpace=wrap;" parent="1" vertex="1">
          <mxGeometry x="200" y="520" width="450" height="2540" as="geometry" />
        </mxCell>
        <mxCell id="bKri6onNMNBy27MQ5fvs-151" value="Report" style="swimlane;fontStyle=0;childLayout=stackLayout;horizontal=1;startSize=26;horizontalStack=0;resizeParent=1;resizeParentMax=0;resizeLast=0;collapsible=1;marginBottom=0;align=center;fontSize=14;" parent="1" vertex="1">
          <mxGeometry x="-470" y="1220" width="160" height="176" as="geometry" />
        </mxCell>
        <mxCell id="bKri6onNMNBy27MQ5fvs-165" value="ID" style="text;strokeColor=none;fillColor=none;spacingLeft=4;spacingRight=4;overflow=hidden;rotatable=0;points=[[0,0.5],[1,0.5]];portConstraint=eastwest;fontSize=12;whiteSpace=wrap;html=1;" parent="bKri6onNMNBy27MQ5fvs-151" vertex="1">
          <mxGeometry y="26" width="160" height="30" as="geometry" />
        </mxCell>
        <mxCell id="bKri6onNMNBy27MQ5fvs-152" value="&lt;span style=&quot;font-size: 14px; text-align: center; text-wrap: nowrap;&quot;&gt;InformationOSID&lt;/span&gt;" style="text;strokeColor=none;fillColor=none;spacingLeft=4;spacingRight=4;overflow=hidden;rotatable=0;points=[[0,0.5],[1,0.5]];portConstraint=eastwest;fontSize=12;whiteSpace=wrap;html=1;" parent="bKri6onNMNBy27MQ5fvs-151" vertex="1">
          <mxGeometry y="56" width="160" height="30" as="geometry" />
        </mxCell>
        <mxCell id="Y1SeXxsEnwyHXWdt9bxx-8" value="RAMInfoID" style="text;strokeColor=none;fillColor=none;spacingLeft=4;spacingRight=4;overflow=hidden;rotatable=0;points=[[0,0.5],[1,0.5]];portConstraint=eastwest;fontSize=12;whiteSpace=wrap;html=1;" vertex="1" parent="bKri6onNMNBy27MQ5fvs-151">
          <mxGeometry y="86" width="160" height="30" as="geometry" />
        </mxCell>
        <mxCell id="Y1SeXxsEnwyHXWdt9bxx-38" value="Location_ID" style="text;strokeColor=none;fillColor=none;spacingLeft=4;spacingRight=4;overflow=hidden;rotatable=0;points=[[0,0.5],[1,0.5]];portConstraint=eastwest;fontSize=12;whiteSpace=wrap;html=1;" vertex="1" parent="bKri6onNMNBy27MQ5fvs-151">
          <mxGeometry y="116" width="160" height="30" as="geometry" />
        </mxCell>
        <mxCell id="Y1SeXxsEnwyHXWdt9bxx-2" value="DateTime" style="text;strokeColor=none;fillColor=none;spacingLeft=4;spacingRight=4;overflow=hidden;rotatable=0;points=[[0,0.5],[1,0.5]];portConstraint=eastwest;fontSize=12;whiteSpace=wrap;html=1;" vertex="1" parent="bKri6onNMNBy27MQ5fvs-151">
          <mxGeometry y="146" width="160" height="30" as="geometry" />
        </mxCell>
        <mxCell id="bKri6onNMNBy27MQ5fvs-163" value="" style="edgeStyle=entityRelationEdgeStyle;fontSize=12;html=1;endArrow=ERmandOne;startArrow=ERmandOne;rounded=0;" parent="1" source="bKri6onNMNBy27MQ5fvs-152" target="bKri6onNMNBy27MQ5fvs-91" edge="1">
          <mxGeometry width="100" height="100" relative="1" as="geometry">
            <mxPoint x="-190" y="991" as="sourcePoint" />
            <mxPoint x="20" y="931" as="targetPoint" />
          </mxGeometry>
        </mxCell>
        <mxCell id="bKri6onNMNBy27MQ5fvs-56" value="InformationOS" style="swimlane;fontStyle=0;childLayout=stackLayout;horizontal=1;startSize=26;horizontalStack=0;resizeParent=1;resizeParentMax=0;resizeLast=0;collapsible=1;marginBottom=0;align=center;fontSize=14;" parent="1" vertex="1">
          <mxGeometry y="300" width="150" height="260" as="geometry" />
        </mxCell>
        <mxCell id="bKri6onNMNBy27MQ5fvs-91" value="ID&amp;nbsp;" style="text;strokeColor=none;fillColor=none;spacingLeft=4;spacingRight=4;overflow=hidden;rotatable=0;points=[[0,0.5],[1,0.5]];portConstraint=eastwest;fontSize=12;whiteSpace=wrap;html=1;" parent="bKri6onNMNBy27MQ5fvs-56" vertex="1">
          <mxGeometry y="26" width="150" height="30" as="geometry" />
        </mxCell>
        <mxCell id="bKri6onNMNBy27MQ5fvs-57" value="NetworkName&amp;nbsp;" style="text;strokeColor=none;fillColor=none;spacingLeft=4;spacingRight=4;overflow=hidden;rotatable=0;points=[[0,0.5],[1,0.5]];portConstraint=eastwest;fontSize=12;whiteSpace=wrap;html=1;" parent="bKri6onNMNBy27MQ5fvs-56" vertex="1">
          <mxGeometry y="56" width="150" height="30" as="geometry" />
        </mxCell>
        <mxCell id="bKri6onNMNBy27MQ5fvs-58" value="OperatingSystem&amp;nbsp;" style="text;strokeColor=none;fillColor=none;spacingLeft=4;spacingRight=4;overflow=hidden;rotatable=0;points=[[0,0.5],[1,0.5]];portConstraint=eastwest;fontSize=12;whiteSpace=wrap;html=1;" parent="bKri6onNMNBy27MQ5fvs-56" vertex="1">
          <mxGeometry y="86" width="150" height="30" as="geometry" />
        </mxCell>
        <mxCell id="bKri6onNMNBy27MQ5fvs-59" value="OperatingSystemVersion" style="text;strokeColor=none;fillColor=none;spacingLeft=4;spacingRight=4;overflow=hidden;rotatable=0;points=[[0,0.5],[1,0.5]];portConstraint=eastwest;fontSize=12;whiteSpace=wrap;html=1;" parent="bKri6onNMNBy27MQ5fvs-56" vertex="1">
          <mxGeometry y="116" width="150" height="24" as="geometry" />
        </mxCell>
        <mxCell id="bKri6onNMNBy27MQ5fvs-62" value="SerialNumber" style="text;strokeColor=none;fillColor=none;spacingLeft=4;spacingRight=4;overflow=hidden;rotatable=0;points=[[0,0.5],[1,0.5]];portConstraint=eastwest;fontSize=12;whiteSpace=wrap;html=1;" parent="bKri6onNMNBy27MQ5fvs-56" vertex="1">
          <mxGeometry y="140" width="150" height="30" as="geometry" />
        </mxCell>
        <mxCell id="bKri6onNMNBy27MQ5fvs-63" value="RegisteredUser" style="text;strokeColor=none;fillColor=none;spacingLeft=4;spacingRight=4;overflow=hidden;rotatable=0;points=[[0,0.5],[1,0.5]];portConstraint=eastwest;fontSize=12;whiteSpace=wrap;html=1;" parent="bKri6onNMNBy27MQ5fvs-56" vertex="1">
          <mxGeometry y="170" width="150" height="30" as="geometry" />
        </mxCell>
        <mxCell id="bKri6onNMNBy27MQ5fvs-64" value="RegionCode" style="text;strokeColor=none;fillColor=none;spacingLeft=4;spacingRight=4;overflow=hidden;rotatable=0;points=[[0,0.5],[1,0.5]];portConstraint=eastwest;fontSize=12;whiteSpace=wrap;html=1;" parent="bKri6onNMNBy27MQ5fvs-56" vertex="1">
          <mxGeometry y="200" width="150" height="30" as="geometry" />
        </mxCell>
        <mxCell id="bKri6onNMNBy27MQ5fvs-65" value="UUID" style="text;strokeColor=none;fillColor=none;spacingLeft=4;spacingRight=4;overflow=hidden;rotatable=0;points=[[0,0.5],[1,0.5]];portConstraint=eastwest;fontSize=12;whiteSpace=wrap;html=1;" parent="bKri6onNMNBy27MQ5fvs-56" vertex="1">
          <mxGeometry y="230" width="150" height="30" as="geometry" />
        </mxCell>
        <mxCell id="bKri6onNMNBy27MQ5fvs-66" value="Processor" style="swimlane;fontStyle=0;childLayout=stackLayout;horizontal=1;startSize=26;horizontalStack=0;resizeParent=1;resizeParentMax=0;resizeLast=0;collapsible=1;marginBottom=0;align=center;fontSize=14;" parent="1" vertex="1">
          <mxGeometry y="620" width="120" height="206" as="geometry" />
        </mxCell>
        <mxCell id="bKri6onNMNBy27MQ5fvs-86" value="ID&amp;nbsp;" style="text;strokeColor=none;fillColor=none;spacingLeft=4;spacingRight=4;overflow=hidden;rotatable=0;points=[[0,0.5],[1,0.5]];portConstraint=eastwest;fontSize=12;whiteSpace=wrap;html=1;" parent="bKri6onNMNBy27MQ5fvs-66" vertex="1">
          <mxGeometry y="26" width="120" height="30" as="geometry" />
        </mxCell>
        <mxCell id="bKri6onNMNBy27MQ5fvs-67" value="Name" style="text;strokeColor=none;fillColor=none;spacingLeft=4;spacingRight=4;overflow=hidden;rotatable=0;points=[[0,0.5],[1,0.5]];portConstraint=eastwest;fontSize=12;whiteSpace=wrap;html=1;" parent="bKri6onNMNBy27MQ5fvs-66" vertex="1">
          <mxGeometry y="56" width="120" height="30" as="geometry" />
        </mxCell>
        <mxCell id="bKri6onNMNBy27MQ5fvs-68" value="Connector" style="text;strokeColor=none;fillColor=none;spacingLeft=4;spacingRight=4;overflow=hidden;rotatable=0;points=[[0,0.5],[1,0.5]];portConstraint=eastwest;fontSize=12;whiteSpace=wrap;html=1;" parent="bKri6onNMNBy27MQ5fvs-66" vertex="1">
          <mxGeometry y="86" width="120" height="30" as="geometry" />
        </mxCell>
        <mxCell id="bKri6onNMNBy27MQ5fvs-69" value="Description" style="text;strokeColor=none;fillColor=none;spacingLeft=4;spacingRight=4;overflow=hidden;rotatable=0;points=[[0,0.5],[1,0.5]];portConstraint=eastwest;fontSize=12;whiteSpace=wrap;html=1;" parent="bKri6onNMNBy27MQ5fvs-66" vertex="1">
          <mxGeometry y="116" width="120" height="30" as="geometry" />
        </mxCell>
        <mxCell id="bKri6onNMNBy27MQ5fvs-70" value="SpeedMHz" style="text;strokeColor=none;fillColor=none;spacingLeft=4;spacingRight=4;overflow=hidden;rotatable=0;points=[[0,0.5],[1,0.5]];portConstraint=eastwest;fontSize=12;whiteSpace=wrap;html=1;" parent="bKri6onNMNBy27MQ5fvs-66" vertex="1">
          <mxGeometry y="146" width="120" height="30" as="geometry" />
        </mxCell>
        <mxCell id="Y1SeXxsEnwyHXWdt9bxx-18" value="Report_ID" style="text;strokeColor=none;fillColor=none;spacingLeft=4;spacingRight=4;overflow=hidden;rotatable=0;points=[[0,0.5],[1,0.5]];portConstraint=eastwest;fontSize=12;whiteSpace=wrap;html=1;" vertex="1" parent="bKri6onNMNBy27MQ5fvs-66">
          <mxGeometry y="176" width="120" height="30" as="geometry" />
        </mxCell>
        <mxCell id="bKri6onNMNBy27MQ5fvs-71" value="Motherboard" style="swimlane;fontStyle=0;childLayout=stackLayout;horizontal=1;startSize=26;horizontalStack=0;resizeParent=1;resizeParentMax=0;resizeLast=0;collapsible=1;marginBottom=0;align=center;fontSize=14;" parent="1" vertex="1">
          <mxGeometry y="850" width="130" height="206" as="geometry" />
        </mxCell>
        <mxCell id="bKri6onNMNBy27MQ5fvs-92" value="ID&amp;nbsp;" style="text;strokeColor=none;fillColor=none;spacingLeft=4;spacingRight=4;overflow=hidden;rotatable=0;points=[[0,0.5],[1,0.5]];portConstraint=eastwest;fontSize=12;whiteSpace=wrap;html=1;" parent="bKri6onNMNBy27MQ5fvs-71" vertex="1">
          <mxGeometry y="26" width="130" height="30" as="geometry" />
        </mxCell>
        <mxCell id="bKri6onNMNBy27MQ5fvs-72" value="Manufacturer" style="text;strokeColor=none;fillColor=none;spacingLeft=4;spacingRight=4;overflow=hidden;rotatable=0;points=[[0,0.5],[1,0.5]];portConstraint=eastwest;fontSize=12;whiteSpace=wrap;html=1;" parent="bKri6onNMNBy27MQ5fvs-71" vertex="1">
          <mxGeometry y="56" width="130" height="30" as="geometry" />
        </mxCell>
        <mxCell id="bKri6onNMNBy27MQ5fvs-73" value="Model" style="text;strokeColor=none;fillColor=none;spacingLeft=4;spacingRight=4;overflow=hidden;rotatable=0;points=[[0,0.5],[1,0.5]];portConstraint=eastwest;fontSize=12;whiteSpace=wrap;html=1;" parent="bKri6onNMNBy27MQ5fvs-71" vertex="1">
          <mxGeometry y="86" width="130" height="30" as="geometry" />
        </mxCell>
        <mxCell id="bKri6onNMNBy27MQ5fvs-74" value="SerialNumber" style="text;strokeColor=none;fillColor=none;spacingLeft=4;spacingRight=4;overflow=hidden;rotatable=0;points=[[0,0.5],[1,0.5]];portConstraint=eastwest;fontSize=12;whiteSpace=wrap;html=1;" parent="bKri6onNMNBy27MQ5fvs-71" vertex="1">
          <mxGeometry y="116" width="130" height="30" as="geometry" />
        </mxCell>
        <mxCell id="bKri6onNMNBy27MQ5fvs-80" value="Status" style="text;strokeColor=none;fillColor=none;spacingLeft=4;spacingRight=4;overflow=hidden;rotatable=0;points=[[0,0.5],[1,0.5]];portConstraint=eastwest;fontSize=12;whiteSpace=wrap;html=1;" parent="bKri6onNMNBy27MQ5fvs-71" vertex="1">
          <mxGeometry y="146" width="130" height="30" as="geometry" />
        </mxCell>
        <mxCell id="Y1SeXxsEnwyHXWdt9bxx-17" value="Report_ID" style="text;strokeColor=none;fillColor=none;spacingLeft=4;spacingRight=4;overflow=hidden;rotatable=0;points=[[0,0.5],[1,0.5]];portConstraint=eastwest;fontSize=12;whiteSpace=wrap;html=1;" vertex="1" parent="bKri6onNMNBy27MQ5fvs-71">
          <mxGeometry y="176" width="130" height="30" as="geometry" />
        </mxCell>
        <mxCell id="bKri6onNMNBy27MQ5fvs-75" value="HDD" style="swimlane;fontStyle=0;childLayout=stackLayout;horizontal=1;startSize=26;horizontalStack=0;resizeParent=1;resizeParentMax=0;resizeLast=0;collapsible=1;marginBottom=0;align=center;fontSize=14;" parent="1" vertex="1">
          <mxGeometry y="1070" width="120" height="206" as="geometry" />
        </mxCell>
        <mxCell id="bKri6onNMNBy27MQ5fvs-81" value="ID&amp;nbsp;" style="text;strokeColor=none;fillColor=none;spacingLeft=4;spacingRight=4;overflow=hidden;rotatable=0;points=[[0,0.5],[1,0.5]];portConstraint=eastwest;fontSize=12;whiteSpace=wrap;html=1;" parent="bKri6onNMNBy27MQ5fvs-75" vertex="1">
          <mxGeometry y="26" width="120" height="30" as="geometry" />
        </mxCell>
        <mxCell id="bKri6onNMNBy27MQ5fvs-76" value="Model" style="text;strokeColor=none;fillColor=none;spacingLeft=4;spacingRight=4;overflow=hidden;rotatable=0;points=[[0,0.5],[1,0.5]];portConstraint=eastwest;fontSize=12;whiteSpace=wrap;html=1;" parent="bKri6onNMNBy27MQ5fvs-75" vertex="1">
          <mxGeometry y="56" width="120" height="30" as="geometry" />
        </mxCell>
        <mxCell id="bKri6onNMNBy27MQ5fvs-77" value="CountOfPartition" style="text;strokeColor=none;fillColor=none;spacingLeft=4;spacingRight=4;overflow=hidden;rotatable=0;points=[[0,0.5],[1,0.5]];portConstraint=eastwest;fontSize=12;whiteSpace=wrap;html=1;" parent="bKri6onNMNBy27MQ5fvs-75" vertex="1">
          <mxGeometry y="86" width="120" height="30" as="geometry" />
        </mxCell>
        <mxCell id="bKri6onNMNBy27MQ5fvs-78" value="SizeGB" style="text;strokeColor=none;fillColor=none;spacingLeft=4;spacingRight=4;overflow=hidden;rotatable=0;points=[[0,0.5],[1,0.5]];portConstraint=eastwest;fontSize=12;whiteSpace=wrap;html=1;" parent="bKri6onNMNBy27MQ5fvs-75" vertex="1">
          <mxGeometry y="116" width="120" height="30" as="geometry" />
        </mxCell>
        <mxCell id="bKri6onNMNBy27MQ5fvs-79" value="Interface" style="text;strokeColor=none;fillColor=none;spacingLeft=4;spacingRight=4;overflow=hidden;rotatable=0;points=[[0,0.5],[1,0.5]];portConstraint=eastwest;fontSize=12;whiteSpace=wrap;html=1;" parent="bKri6onNMNBy27MQ5fvs-75" vertex="1">
          <mxGeometry y="146" width="120" height="30" as="geometry" />
        </mxCell>
        <mxCell id="Y1SeXxsEnwyHXWdt9bxx-16" value="Report_ID" style="text;strokeColor=none;fillColor=none;spacingLeft=4;spacingRight=4;overflow=hidden;rotatable=0;points=[[0,0.5],[1,0.5]];portConstraint=eastwest;fontSize=12;whiteSpace=wrap;html=1;" vertex="1" parent="bKri6onNMNBy27MQ5fvs-75">
          <mxGeometry y="176" width="120" height="30" as="geometry" />
        </mxCell>
        <mxCell id="bKri6onNMNBy27MQ5fvs-94" value="LogicalDrive" style="swimlane;fontStyle=0;childLayout=stackLayout;horizontal=1;startSize=26;horizontalStack=0;resizeParent=1;resizeParentMax=0;resizeLast=0;collapsible=1;marginBottom=0;align=center;fontSize=14;" parent="1" vertex="1">
          <mxGeometry y="1290" width="100" height="206" as="geometry" />
        </mxCell>
        <mxCell id="bKri6onNMNBy27MQ5fvs-99" value="ID&amp;nbsp;" style="text;strokeColor=none;fillColor=none;spacingLeft=4;spacingRight=4;overflow=hidden;rotatable=0;points=[[0,0.5],[1,0.5]];portConstraint=eastwest;fontSize=12;whiteSpace=wrap;html=1;" parent="bKri6onNMNBy27MQ5fvs-94" vertex="1">
          <mxGeometry y="26" width="100" height="30" as="geometry" />
        </mxCell>
        <mxCell id="bKri6onNMNBy27MQ5fvs-95" value="Name" style="text;strokeColor=none;fillColor=none;spacingLeft=4;spacingRight=4;overflow=hidden;rotatable=0;points=[[0,0.5],[1,0.5]];portConstraint=eastwest;fontSize=12;whiteSpace=wrap;html=1;" parent="bKri6onNMNBy27MQ5fvs-94" vertex="1">
          <mxGeometry y="56" width="100" height="30" as="geometry" />
        </mxCell>
        <mxCell id="bKri6onNMNBy27MQ5fvs-96" value="FileSystem" style="text;strokeColor=none;fillColor=none;spacingLeft=4;spacingRight=4;overflow=hidden;rotatable=0;points=[[0,0.5],[1,0.5]];portConstraint=eastwest;fontSize=12;whiteSpace=wrap;html=1;" parent="bKri6onNMNBy27MQ5fvs-94" vertex="1">
          <mxGeometry y="86" width="100" height="30" as="geometry" />
        </mxCell>
        <mxCell id="bKri6onNMNBy27MQ5fvs-97" value="CapacityGB" style="text;strokeColor=none;fillColor=none;spacingLeft=4;spacingRight=4;overflow=hidden;rotatable=0;points=[[0,0.5],[1,0.5]];portConstraint=eastwest;fontSize=12;whiteSpace=wrap;html=1;" parent="bKri6onNMNBy27MQ5fvs-94" vertex="1">
          <mxGeometry y="116" width="100" height="30" as="geometry" />
        </mxCell>
        <mxCell id="bKri6onNMNBy27MQ5fvs-98" value="FreeSpaceGB" style="text;strokeColor=none;fillColor=none;spacingLeft=4;spacingRight=4;overflow=hidden;rotatable=0;points=[[0,0.5],[1,0.5]];portConstraint=eastwest;fontSize=12;whiteSpace=wrap;html=1;" parent="bKri6onNMNBy27MQ5fvs-94" vertex="1">
          <mxGeometry y="146" width="100" height="30" as="geometry" />
        </mxCell>
        <mxCell id="Y1SeXxsEnwyHXWdt9bxx-15" value="Report_ID" style="text;strokeColor=none;fillColor=none;spacingLeft=4;spacingRight=4;overflow=hidden;rotatable=0;points=[[0,0.5],[1,0.5]];portConstraint=eastwest;fontSize=12;whiteSpace=wrap;html=1;" vertex="1" parent="bKri6onNMNBy27MQ5fvs-94">
          <mxGeometry y="176" width="100" height="30" as="geometry" />
        </mxCell>
        <mxCell id="bKri6onNMNBy27MQ5fvs-105" value="RAM" style="swimlane;fontStyle=0;childLayout=stackLayout;horizontal=1;startSize=26;horizontalStack=0;resizeParent=1;resizeParentMax=0;resizeLast=0;collapsible=1;marginBottom=0;align=center;fontSize=14;" parent="1" vertex="1">
          <mxGeometry y="1510" width="110" height="266" as="geometry" />
        </mxCell>
        <mxCell id="bKri6onNMNBy27MQ5fvs-123" value="ID&amp;nbsp;" style="text;strokeColor=none;fillColor=none;spacingLeft=4;spacingRight=4;overflow=hidden;rotatable=0;points=[[0,0.5],[1,0.5]];portConstraint=eastwest;fontSize=12;whiteSpace=wrap;html=1;" parent="bKri6onNMNBy27MQ5fvs-105" vertex="1">
          <mxGeometry y="26" width="110" height="30" as="geometry" />
        </mxCell>
        <mxCell id="bKri6onNMNBy27MQ5fvs-106" value="CapacityMB" style="text;strokeColor=none;fillColor=none;spacingLeft=4;spacingRight=4;overflow=hidden;rotatable=0;points=[[0,0.5],[1,0.5]];portConstraint=eastwest;fontSize=12;whiteSpace=wrap;html=1;" parent="bKri6onNMNBy27MQ5fvs-105" vertex="1">
          <mxGeometry y="56" width="110" height="30" as="geometry" />
        </mxCell>
        <mxCell id="bKri6onNMNBy27MQ5fvs-107" value="Location" style="text;strokeColor=none;fillColor=none;spacingLeft=4;spacingRight=4;overflow=hidden;rotatable=0;points=[[0,0.5],[1,0.5]];portConstraint=eastwest;fontSize=12;whiteSpace=wrap;html=1;" parent="bKri6onNMNBy27MQ5fvs-105" vertex="1">
          <mxGeometry y="86" width="110" height="30" as="geometry" />
        </mxCell>
        <mxCell id="bKri6onNMNBy27MQ5fvs-114" value="Manufacturer" style="text;strokeColor=none;fillColor=none;spacingLeft=4;spacingRight=4;overflow=hidden;rotatable=0;points=[[0,0.5],[1,0.5]];portConstraint=eastwest;fontSize=12;whiteSpace=wrap;html=1;" parent="bKri6onNMNBy27MQ5fvs-105" vertex="1">
          <mxGeometry y="116" width="110" height="30" as="geometry" />
        </mxCell>
        <mxCell id="bKri6onNMNBy27MQ5fvs-113" value="PartNumber" style="text;strokeColor=none;fillColor=none;spacingLeft=4;spacingRight=4;overflow=hidden;rotatable=0;points=[[0,0.5],[1,0.5]];portConstraint=eastwest;fontSize=12;whiteSpace=wrap;html=1;" parent="bKri6onNMNBy27MQ5fvs-105" vertex="1">
          <mxGeometry y="146" width="110" height="30" as="geometry" />
        </mxCell>
        <mxCell id="bKri6onNMNBy27MQ5fvs-115" value="SerialNumber" style="text;strokeColor=none;fillColor=none;spacingLeft=4;spacingRight=4;overflow=hidden;rotatable=0;points=[[0,0.5],[1,0.5]];portConstraint=eastwest;fontSize=12;whiteSpace=wrap;html=1;" parent="bKri6onNMNBy27MQ5fvs-105" vertex="1">
          <mxGeometry y="176" width="110" height="30" as="geometry" />
        </mxCell>
        <mxCell id="bKri6onNMNBy27MQ5fvs-116" value="Identifier" style="text;strokeColor=none;fillColor=none;spacingLeft=4;spacingRight=4;overflow=hidden;rotatable=0;points=[[0,0.5],[1,0.5]];portConstraint=eastwest;fontSize=12;whiteSpace=wrap;html=1;" parent="bKri6onNMNBy27MQ5fvs-105" vertex="1">
          <mxGeometry y="206" width="110" height="30" as="geometry" />
        </mxCell>
        <mxCell id="Y1SeXxsEnwyHXWdt9bxx-14" value="Report_ID" style="text;strokeColor=none;fillColor=none;spacingLeft=4;spacingRight=4;overflow=hidden;rotatable=0;points=[[0,0.5],[1,0.5]];portConstraint=eastwest;fontSize=12;whiteSpace=wrap;html=1;" vertex="1" parent="bKri6onNMNBy27MQ5fvs-105">
          <mxGeometry y="236" width="110" height="30" as="geometry" />
        </mxCell>
        <mxCell id="bKri6onNMNBy27MQ5fvs-119" value="GPU" style="swimlane;fontStyle=0;childLayout=stackLayout;horizontal=1;startSize=26;horizontalStack=0;resizeParent=1;resizeParentMax=0;resizeLast=0;collapsible=1;marginBottom=0;align=center;fontSize=14;" parent="1" vertex="1">
          <mxGeometry y="1980" width="110" height="176" as="geometry" />
        </mxCell>
        <mxCell id="bKri6onNMNBy27MQ5fvs-124" value="ID&amp;nbsp;" style="text;strokeColor=none;fillColor=none;spacingLeft=4;spacingRight=4;overflow=hidden;rotatable=0;points=[[0,0.5],[1,0.5]];portConstraint=eastwest;fontSize=12;whiteSpace=wrap;html=1;" parent="bKri6onNMNBy27MQ5fvs-119" vertex="1">
          <mxGeometry y="26" width="110" height="30" as="geometry" />
        </mxCell>
        <mxCell id="bKri6onNMNBy27MQ5fvs-120" value="Name" style="text;strokeColor=none;fillColor=none;spacingLeft=4;spacingRight=4;overflow=hidden;rotatable=0;points=[[0,0.5],[1,0.5]];portConstraint=eastwest;fontSize=12;whiteSpace=wrap;html=1;" parent="bKri6onNMNBy27MQ5fvs-119" vertex="1">
          <mxGeometry y="56" width="110" height="30" as="geometry" />
        </mxCell>
        <mxCell id="bKri6onNMNBy27MQ5fvs-121" value="CapacityMB" style="text;strokeColor=none;fillColor=none;spacingLeft=4;spacingRight=4;overflow=hidden;rotatable=0;points=[[0,0.5],[1,0.5]];portConstraint=eastwest;fontSize=12;whiteSpace=wrap;html=1;" parent="bKri6onNMNBy27MQ5fvs-119" vertex="1">
          <mxGeometry y="86" width="110" height="30" as="geometry" />
        </mxCell>
        <mxCell id="bKri6onNMNBy27MQ5fvs-122" value="VideoProcessor" style="text;strokeColor=none;fillColor=none;spacingLeft=4;spacingRight=4;overflow=hidden;rotatable=0;points=[[0,0.5],[1,0.5]];portConstraint=eastwest;fontSize=12;whiteSpace=wrap;html=1;" parent="bKri6onNMNBy27MQ5fvs-119" vertex="1">
          <mxGeometry y="116" width="110" height="30" as="geometry" />
        </mxCell>
        <mxCell id="Y1SeXxsEnwyHXWdt9bxx-12" value="Report_ID" style="text;strokeColor=none;fillColor=none;spacingLeft=4;spacingRight=4;overflow=hidden;rotatable=0;points=[[0,0.5],[1,0.5]];portConstraint=eastwest;fontSize=12;whiteSpace=wrap;html=1;" vertex="1" parent="bKri6onNMNBy27MQ5fvs-119">
          <mxGeometry y="146" width="110" height="30" as="geometry" />
        </mxCell>
        <mxCell id="bKri6onNMNBy27MQ5fvs-131" value="LANCard" style="swimlane;fontStyle=0;childLayout=stackLayout;horizontal=1;startSize=26;horizontalStack=0;resizeParent=1;resizeParentMax=0;resizeLast=0;collapsible=1;marginBottom=0;align=center;fontSize=14;" parent="1" vertex="1">
          <mxGeometry y="2180" width="100" height="176" as="geometry" />
        </mxCell>
        <mxCell id="bKri6onNMNBy27MQ5fvs-135" value="ID&amp;nbsp;" style="text;strokeColor=none;fillColor=none;spacingLeft=4;spacingRight=4;overflow=hidden;rotatable=0;points=[[0,0.5],[1,0.5]];portConstraint=eastwest;fontSize=12;whiteSpace=wrap;html=1;" parent="bKri6onNMNBy27MQ5fvs-131" vertex="1">
          <mxGeometry y="26" width="100" height="30" as="geometry" />
        </mxCell>
        <mxCell id="bKri6onNMNBy27MQ5fvs-132" value="Name" style="text;strokeColor=none;fillColor=none;spacingLeft=4;spacingRight=4;overflow=hidden;rotatable=0;points=[[0,0.5],[1,0.5]];portConstraint=eastwest;fontSize=12;whiteSpace=wrap;html=1;" parent="bKri6onNMNBy27MQ5fvs-131" vertex="1">
          <mxGeometry y="56" width="100" height="30" as="geometry" />
        </mxCell>
        <mxCell id="bKri6onNMNBy27MQ5fvs-133" value="MACAddress" style="text;strokeColor=none;fillColor=none;spacingLeft=4;spacingRight=4;overflow=hidden;rotatable=0;points=[[0,0.5],[1,0.5]];portConstraint=eastwest;fontSize=12;whiteSpace=wrap;html=1;" parent="bKri6onNMNBy27MQ5fvs-131" vertex="1">
          <mxGeometry y="86" width="100" height="30" as="geometry" />
        </mxCell>
        <mxCell id="bKri6onNMNBy27MQ5fvs-134" value="Type" style="text;strokeColor=none;fillColor=none;spacingLeft=4;spacingRight=4;overflow=hidden;rotatable=0;points=[[0,0.5],[1,0.5]];portConstraint=eastwest;fontSize=12;whiteSpace=wrap;html=1;" parent="bKri6onNMNBy27MQ5fvs-131" vertex="1">
          <mxGeometry y="116" width="100" height="30" as="geometry" />
        </mxCell>
        <mxCell id="Y1SeXxsEnwyHXWdt9bxx-11" value="Report_ID" style="text;strokeColor=none;fillColor=none;spacingLeft=4;spacingRight=4;overflow=hidden;rotatable=0;points=[[0,0.5],[1,0.5]];portConstraint=eastwest;fontSize=12;whiteSpace=wrap;html=1;" vertex="1" parent="bKri6onNMNBy27MQ5fvs-131">
          <mxGeometry y="146" width="100" height="30" as="geometry" />
        </mxCell>
        <mxCell id="Y1SeXxsEnwyHXWdt9bxx-3" value="RAMInfo" style="swimlane;fontStyle=0;childLayout=stackLayout;horizontal=1;startSize=26;horizontalStack=0;resizeParent=1;resizeParentMax=0;resizeLast=0;collapsible=1;marginBottom=0;align=center;fontSize=14;" vertex="1" parent="1">
          <mxGeometry y="1790" width="110" height="116" as="geometry" />
        </mxCell>
        <mxCell id="Y1SeXxsEnwyHXWdt9bxx-4" value="ID&amp;nbsp;" style="text;strokeColor=none;fillColor=none;spacingLeft=4;spacingRight=4;overflow=hidden;rotatable=0;points=[[0,0.5],[1,0.5]];portConstraint=eastwest;fontSize=12;whiteSpace=wrap;html=1;" vertex="1" parent="Y1SeXxsEnwyHXWdt9bxx-3">
          <mxGeometry y="26" width="110" height="30" as="geometry" />
        </mxCell>
        <mxCell id="Y1SeXxsEnwyHXWdt9bxx-5" value="TotalCapacity" style="text;strokeColor=none;fillColor=none;spacingLeft=4;spacingRight=4;overflow=hidden;rotatable=0;points=[[0,0.5],[1,0.5]];portConstraint=eastwest;fontSize=12;whiteSpace=wrap;html=1;" vertex="1" parent="Y1SeXxsEnwyHXWdt9bxx-3">
          <mxGeometry y="56" width="110" height="30" as="geometry" />
        </mxCell>
        <mxCell id="Y1SeXxsEnwyHXWdt9bxx-6" value="CountOfRAM" style="text;strokeColor=none;fillColor=none;spacingLeft=4;spacingRight=4;overflow=hidden;rotatable=0;points=[[0,0.5],[1,0.5]];portConstraint=eastwest;fontSize=12;whiteSpace=wrap;html=1;" vertex="1" parent="Y1SeXxsEnwyHXWdt9bxx-3">
          <mxGeometry y="86" width="110" height="30" as="geometry" />
        </mxCell>
        <mxCell id="Y1SeXxsEnwyHXWdt9bxx-10" value="" style="edgeStyle=entityRelationEdgeStyle;fontSize=12;html=1;endArrow=ERmandOne;startArrow=ERmandOne;rounded=0;" edge="1" parent="1" source="Y1SeXxsEnwyHXWdt9bxx-8" target="Y1SeXxsEnwyHXWdt9bxx-4">
          <mxGeometry width="100" height="100" relative="1" as="geometry">
            <mxPoint x="-320" y="1730" as="sourcePoint" />
            <mxPoint x="-110" y="1220" as="targetPoint" />
          </mxGeometry>
        </mxCell>
        <mxCell id="Y1SeXxsEnwyHXWdt9bxx-21" value="" style="edgeStyle=entityRelationEdgeStyle;fontSize=12;html=1;endArrow=ERoneToMany;rounded=0;" edge="1" parent="1" source="bKri6onNMNBy27MQ5fvs-165" target="Y1SeXxsEnwyHXWdt9bxx-18">
          <mxGeometry width="100" height="100" relative="1" as="geometry">
            <mxPoint x="-160" y="1620" as="sourcePoint" />
            <mxPoint x="-60" y="1520" as="targetPoint" />
          </mxGeometry>
        </mxCell>
        <mxCell id="Y1SeXxsEnwyHXWdt9bxx-22" value="" style="edgeStyle=entityRelationEdgeStyle;fontSize=12;html=1;endArrow=ERoneToMany;rounded=0;" edge="1" parent="1" source="bKri6onNMNBy27MQ5fvs-165" target="Y1SeXxsEnwyHXWdt9bxx-16">
          <mxGeometry width="100" height="100" relative="1" as="geometry">
            <mxPoint x="-190" y="931" as="sourcePoint" />
            <mxPoint x="10" y="831" as="targetPoint" />
          </mxGeometry>
        </mxCell>
        <mxCell id="Y1SeXxsEnwyHXWdt9bxx-24" value="" style="edgeStyle=entityRelationEdgeStyle;fontSize=12;html=1;endArrow=ERoneToMany;rounded=0;" edge="1" parent="1" source="bKri6onNMNBy27MQ5fvs-165" target="Y1SeXxsEnwyHXWdt9bxx-17">
          <mxGeometry width="100" height="100" relative="1" as="geometry">
            <mxPoint x="-170" y="951" as="sourcePoint" />
            <mxPoint x="30" y="851" as="targetPoint" />
          </mxGeometry>
        </mxCell>
        <mxCell id="Y1SeXxsEnwyHXWdt9bxx-25" value="" style="edgeStyle=entityRelationEdgeStyle;fontSize=12;html=1;endArrow=ERoneToMany;rounded=0;" edge="1" parent="1" source="bKri6onNMNBy27MQ5fvs-165" target="Y1SeXxsEnwyHXWdt9bxx-15">
          <mxGeometry width="100" height="100" relative="1" as="geometry">
            <mxPoint x="-360" y="941" as="sourcePoint" />
            <mxPoint x="10" y="1271" as="targetPoint" />
          </mxGeometry>
        </mxCell>
        <mxCell id="Y1SeXxsEnwyHXWdt9bxx-26" value="" style="edgeStyle=entityRelationEdgeStyle;fontSize=12;html=1;endArrow=ERoneToMany;rounded=0;" edge="1" parent="1" source="bKri6onNMNBy27MQ5fvs-165" target="Y1SeXxsEnwyHXWdt9bxx-14">
          <mxGeometry width="100" height="100" relative="1" as="geometry">
            <mxPoint x="-360" y="941" as="sourcePoint" />
            <mxPoint x="10" y="1491" as="targetPoint" />
          </mxGeometry>
        </mxCell>
        <mxCell id="Y1SeXxsEnwyHXWdt9bxx-28" value="" style="edgeStyle=entityRelationEdgeStyle;fontSize=12;html=1;endArrow=ERoneToMany;rounded=0;" edge="1" parent="1" source="bKri6onNMNBy27MQ5fvs-165" target="Y1SeXxsEnwyHXWdt9bxx-12">
          <mxGeometry width="100" height="100" relative="1" as="geometry">
            <mxPoint x="-350" y="951" as="sourcePoint" />
            <mxPoint x="20" y="1781" as="targetPoint" />
          </mxGeometry>
        </mxCell>
        <mxCell id="Y1SeXxsEnwyHXWdt9bxx-29" value="" style="edgeStyle=entityRelationEdgeStyle;fontSize=12;html=1;endArrow=ERoneToMany;rounded=0;" edge="1" parent="1" source="bKri6onNMNBy27MQ5fvs-165" target="Y1SeXxsEnwyHXWdt9bxx-11">
          <mxGeometry width="100" height="100" relative="1" as="geometry">
            <mxPoint x="-340" y="961" as="sourcePoint" />
            <mxPoint x="30" y="1791" as="targetPoint" />
          </mxGeometry>
        </mxCell>
        <mxCell id="Y1SeXxsEnwyHXWdt9bxx-32" value="Location" style="swimlane;fontStyle=0;childLayout=stackLayout;horizontal=1;startSize=26;horizontalStack=0;resizeParent=1;resizeParentMax=0;resizeLast=0;collapsible=1;marginBottom=0;align=center;fontSize=14;" vertex="1" parent="1">
          <mxGeometry x="-700" y="993" width="160" height="176" as="geometry" />
        </mxCell>
        <mxCell id="Y1SeXxsEnwyHXWdt9bxx-37" value="ID" style="text;strokeColor=none;fillColor=none;spacingLeft=4;spacingRight=4;overflow=hidden;rotatable=0;points=[[0,0.5],[1,0.5]];portConstraint=eastwest;fontSize=12;whiteSpace=wrap;html=1;" vertex="1" parent="Y1SeXxsEnwyHXWdt9bxx-32">
          <mxGeometry y="26" width="160" height="30" as="geometry" />
        </mxCell>
        <mxCell id="Y1SeXxsEnwyHXWdt9bxx-33" value="City" style="text;strokeColor=none;fillColor=none;spacingLeft=4;spacingRight=4;overflow=hidden;rotatable=0;points=[[0,0.5],[1,0.5]];portConstraint=eastwest;fontSize=12;whiteSpace=wrap;html=1;" vertex="1" parent="Y1SeXxsEnwyHXWdt9bxx-32">
          <mxGeometry y="56" width="160" height="30" as="geometry" />
        </mxCell>
        <mxCell id="Y1SeXxsEnwyHXWdt9bxx-34" value="Street" style="text;strokeColor=none;fillColor=none;spacingLeft=4;spacingRight=4;overflow=hidden;rotatable=0;points=[[0,0.5],[1,0.5]];portConstraint=eastwest;fontSize=12;whiteSpace=wrap;html=1;" vertex="1" parent="Y1SeXxsEnwyHXWdt9bxx-32">
          <mxGeometry y="86" width="160" height="30" as="geometry" />
        </mxCell>
        <mxCell id="Y1SeXxsEnwyHXWdt9bxx-35" value="House" style="text;strokeColor=none;fillColor=none;spacingLeft=4;spacingRight=4;overflow=hidden;rotatable=0;points=[[0,0.5],[1,0.5]];portConstraint=eastwest;fontSize=12;whiteSpace=wrap;html=1;" vertex="1" parent="Y1SeXxsEnwyHXWdt9bxx-32">
          <mxGeometry y="116" width="160" height="30" as="geometry" />
        </mxCell>
        <mxCell id="Y1SeXxsEnwyHXWdt9bxx-36" value="Cabinet" style="text;strokeColor=none;fillColor=none;spacingLeft=4;spacingRight=4;overflow=hidden;rotatable=0;points=[[0,0.5],[1,0.5]];portConstraint=eastwest;fontSize=12;whiteSpace=wrap;html=1;" vertex="1" parent="Y1SeXxsEnwyHXWdt9bxx-32">
          <mxGeometry y="146" width="160" height="30" as="geometry" />
        </mxCell>
        <mxCell id="Y1SeXxsEnwyHXWdt9bxx-39" value="" style="edgeStyle=entityRelationEdgeStyle;fontSize=12;html=1;endArrow=ERmandOne;startArrow=ERmandOne;rounded=0;" edge="1" parent="1" source="Y1SeXxsEnwyHXWdt9bxx-38" target="Y1SeXxsEnwyHXWdt9bxx-37">
          <mxGeometry width="100" height="100" relative="1" as="geometry">
            <mxPoint x="-240" y="1270" as="sourcePoint" />
            <mxPoint x="-140" y="1170" as="targetPoint" />
          </mxGeometry>
        </mxCell>
      </root>
    </mxGraphModel>
  </diagram>
</mxfile>
